<svg width="130" height="16" viewBox="0 0 130 16" fill="none" xmlns="http://www.w3.org/2000/svg">
<g filter="url(#filter0_i)">
<path d="M3.75 12.6087H9.9707V14.9622H0.820312V0.7435H3.75V12.6087ZM23.7148 8.17514C23.7148 9.57488 23.4674 10.8021 22.9727 11.8568C22.4779 12.9115 21.7682 13.7253 20.8438 14.2982C19.9258 14.8711 18.8711 15.1576 17.6797 15.1576C16.5013 15.1576 15.4499 14.8744 14.5254 14.308C13.6009 13.7415 12.8848 12.9343 12.377 11.8861C11.8691 10.8314 11.612 9.62045 11.6055 8.25327V7.55014C11.6055 6.1504 11.8561 4.91993 12.3574 3.85873C12.8652 2.79103 13.5781 1.97397 14.4961 1.40756C15.4206 0.834646 16.4753 0.548187 17.6602 0.548187C18.8451 0.548187 19.8965 0.834646 20.8145 1.40756C21.7389 1.97397 22.4518 2.79103 22.9531 3.85873C23.4609 4.91993 23.7148 6.14715 23.7148 7.54037V8.17514ZM20.7461 7.53061C20.7461 6.03972 20.4792 4.90691 19.9453 4.13217C19.4115 3.35743 18.6497 2.97006 17.6602 2.97006C16.6771 2.97006 15.9186 3.35418 15.3848 4.12241C14.8509 4.88412 14.5807 6.00392 14.5742 7.48178V8.17514C14.5742 9.62696 14.8411 10.7533 15.375 11.554C15.9089 12.3548 16.6771 12.7552 17.6797 12.7552C18.6628 12.7552 19.418 12.3711 19.9453 11.6029C20.4727 10.8281 20.7396 9.70183 20.7461 8.22397V7.53061ZM31.7168 5.64584L34.3828 0.7435H37.752L33.6113 7.79428L37.8594 14.9622H34.4512L31.7168 9.98178L28.9824 14.9622H25.5742L29.8223 7.79428L25.6816 0.7435H29.0508L31.7168 5.64584ZM53.6973 11.2318C53.6973 10.6784 53.502 10.2552 53.1113 9.96225C52.7207 9.66277 52.0176 9.35027 51.002 9.02475C49.9863 8.69272 49.1823 8.3672 48.5898 8.04819C46.9753 7.17579 46.168 6.00066 46.168 4.5228C46.168 3.75457 46.3828 3.07097 46.8125 2.47202C47.2487 1.86655 47.8704 1.39454 48.6777 1.056C49.4915 0.717458 50.403 0.548187 51.4121 0.548187C52.4277 0.548187 53.3327 0.733734 54.127 1.10483C54.9212 1.46941 55.5365 1.98699 55.9727 2.65756C56.4154 3.32814 56.6367 4.08985 56.6367 4.94272H53.707C53.707 4.29168 53.502 3.78712 53.0918 3.42905C52.6816 3.06446 52.1055 2.88217 51.3633 2.88217C50.6471 2.88217 50.0905 3.03517 49.6934 3.34116C49.2962 3.64064 49.0977 4.03777 49.0977 4.53256C49.0977 4.9948 49.3288 5.38217 49.791 5.69467C50.2598 6.00717 50.9466 6.30014 51.8516 6.57358C53.5182 7.07488 54.7324 7.69662 55.4941 8.43881C56.2559 9.181 56.6367 10.1055 56.6367 11.2122C56.6367 12.4427 56.1712 13.4095 55.2402 14.1126C54.3092 14.8093 53.056 15.1576 51.4805 15.1576C50.3867 15.1576 49.3906 14.959 48.4922 14.5619C47.5938 14.1582 46.9069 13.6081 46.4316 12.9115C45.9629 12.2149 45.7285 11.4076 45.7285 10.4896H48.668C48.668 12.0586 49.6055 12.8431 51.4805 12.8431C52.1771 12.8431 52.7207 12.7031 53.1113 12.4232C53.502 12.1367 53.6973 11.7396 53.6973 11.2318ZM68.1836 8.80014H62.5586V12.6087H69.1602V14.9622H59.6289V0.7435H69.1406V3.11655H62.5586V6.50522H68.1836V8.80014ZM77.1426 9.75717H74.8086V14.9622H71.8789V0.7435H77.1621C78.8418 0.7435 80.1374 1.11785 81.0488 1.86655C81.9603 2.61524 82.416 3.67319 82.416 5.04037C82.416 6.01043 82.2044 6.82097 81.7812 7.47202C81.3646 8.11655 80.7298 8.63087 79.877 9.01498L82.9531 14.8255V14.9622H79.8086L77.1426 9.75717ZM74.8086 7.38412H77.1719C77.9076 7.38412 78.4772 7.19858 78.8809 6.82748C79.2845 6.44988 79.4863 5.9323 79.4863 5.27475C79.4863 4.60418 79.2943 4.07683 78.9102 3.69272C78.5326 3.3086 77.9499 3.11655 77.1621 3.11655H74.8086V7.38412ZM90.7109 11.4369L93.9336 0.7435H97.1953L92.2441 14.9622H89.1875L84.2559 0.7435H87.5078L90.7109 11.4369ZM102.658 14.9622H99.7285V0.7435H102.658V14.9622ZM117.545 10.2259C117.434 11.7559 116.868 12.9603 115.846 13.8392C114.83 14.7181 113.489 15.1576 111.822 15.1576C109.999 15.1576 108.564 14.5456 107.516 13.3216C106.474 12.0912 105.953 10.405 105.953 8.26303V7.39389C105.953 6.0267 106.194 4.82228 106.676 3.78061C107.158 2.73894 107.844 1.94142 108.736 1.38803C109.635 0.828135 110.676 0.548187 111.861 0.548187C113.502 0.548187 114.824 0.98764 115.826 1.86655C116.829 2.74545 117.408 3.97918 117.564 5.56772H114.635C114.563 4.64975 114.306 3.98569 113.863 3.57553C113.427 3.15886 112.76 2.95053 111.861 2.95053C110.885 2.95053 110.152 3.30209 109.664 4.00522C109.182 4.70183 108.935 5.78582 108.922 7.25717V8.33139C108.922 9.86785 109.153 10.9909 109.615 11.7005C110.084 12.4102 110.82 12.765 111.822 12.765C112.727 12.765 113.401 12.5599 113.844 12.1497C114.293 11.7331 114.55 11.0918 114.615 10.2259H117.545ZM129.023 8.80014H123.398V12.6087H130V14.9622H120.469V0.7435H129.98V3.11655H123.398V6.50522H129.023V8.80014Z" fill="black"/>
</g>
<defs>
<filter id="filter0_i" x="0.820312" y="0.548187" width="129.18" height="14.6094" filterUnits="userSpaceOnUse" color-interpolation-filters="sRGB">
<feFlood flood-opacity="0" result="BackgroundImageFix"/>
<feBlend mode="normal" in="SourceGraphic" in2="BackgroundImageFix" result="shape"/>
<feColorMatrix in="SourceAlpha" type="matrix" values="0 0 0 0 0 0 0 0 0 0 0 0 0 0 0 0 0 0 127 0" result="hardAlpha"/>
<feOffset dy="2"/>
<feComposite in2="hardAlpha" operator="arithmetic" k2="-1" k3="1"/>
<feColorMatrix type="matrix" values="0 0 0 0 0 0 0 0 0 0 0 0 0 0 0 0 0 0 0.25 0"/>
<feBlend mode="normal" in2="shape" result="effect1_innerShadow"/>
</filter>
</defs>
</svg>
