<svg width="19" height="20" viewBox="0 0 19 20" fill="none" xmlns="http://www.w3.org/2000/svg">
<path fill-rule="evenodd" clip-rule="evenodd" d="M2.25337 1C1.56115 1 1 1.56115 1 2.25337C1 2.94559 1.56115 3.50674 2.25337 3.50674H16.7466C17.4388 3.50674 18 2.94559 18 2.25337C18 1.56115 17.4388 1 16.7466 1H2.25337ZM2.25337 8.52023C1.56115 8.52023 1 9.08138 1 9.7736C1 10.4658 1.56115 11.027 2.25337 11.027H16.7466C17.4388 11.027 18 10.4658 18 9.7736C18 9.08138 17.4388 8.52023 16.7466 8.52023H2.25337ZM2.25337 18.5472C1.56115 18.5472 1 17.986 1 17.2938C1 16.6016 1.56115 16.0404 2.25337 16.0404H10.3716C11.0638 16.0404 11.625 16.6016 11.625 17.2938C11.625 17.986 11.0638 18.5472 10.3716 18.5472H2.25337Z" fill="black"/>
<path d="M16.7466 3.00674H2.25337V4.00674H16.7466V3.00674ZM2.25337 1.5H16.7466V0.5H2.25337V1.5ZM16.7466 10.527H2.25337V11.527H16.7466V10.527ZM2.25337 9.02023H16.7466V8.02023H2.25337V9.02023ZM10.3716 15.5404H2.25337V16.5404H10.3716V15.5404ZM2.25337 19.0472H10.3716V18.0472H2.25337V19.0472ZM11.125 17.2938C11.125 17.7099 10.7877 18.0472 10.3716 18.0472V19.0472C11.34 19.0472 12.125 18.2622 12.125 17.2938H11.125ZM10.3716 16.5404C10.7877 16.5404 11.125 16.8777 11.125 17.2938H12.125C12.125 16.3254 11.34 15.5404 10.3716 15.5404V16.5404ZM0.5 17.2938C0.5 18.2622 1.28501 19.0472 2.25337 19.0472V18.0472C1.83729 18.0472 1.5 17.7099 1.5 17.2938H0.5ZM1.5 17.2938C1.5 16.8777 1.83729 16.5404 2.25337 16.5404V15.5404C1.28501 15.5404 0.5 16.3254 0.5 17.2938H1.5ZM18.5 9.7736C18.5 8.80524 17.715 8.02023 16.7466 8.02023V9.02023C17.1627 9.02023 17.5 9.35752 17.5 9.7736H18.5ZM16.7466 11.527C17.715 11.527 18.5 10.742 18.5 9.7736H17.5C17.5 10.1897 17.1627 10.527 16.7466 10.527V11.527ZM1.5 9.7736C1.5 9.35752 1.8373 9.02023 2.25337 9.02023V8.02023C1.28501 8.02023 0.5 8.80524 0.5 9.7736H1.5ZM0.5 9.7736C0.5 10.742 1.28501 11.527 2.25337 11.527V10.527C1.8373 10.527 1.5 10.1897 1.5 9.7736H0.5ZM18.5 2.25337C18.5 1.28501 17.715 0.5 16.7466 0.5V1.5C17.1627 1.5 17.5 1.83729 17.5 2.25337H18.5ZM16.7466 4.00674C17.715 4.00674 18.5 3.22173 18.5 2.25337H17.5C17.5 2.66944 17.1627 3.00674 16.7466 3.00674V4.00674ZM1.5 2.25337C1.5 1.83729 1.83729 1.5 2.25337 1.5V0.5C1.28501 0.5 0.5 1.28501 0.5 2.25337H1.5ZM0.5 2.25337C0.5 3.22173 1.28501 4.00674 2.25337 4.00674V3.00674C1.83729 3.00674 1.5 2.66944 1.5 2.25337H0.5Z" fill="#FAFAFA"/>
</svg>
