<svg width="19" height="17" viewBox="0 0 19 17" fill="none" xmlns="http://www.w3.org/2000/svg">
<path fill-rule="evenodd" clip-rule="evenodd" d="M2.07143 1C1.47969 1 1 1.47969 1 2.07143C1 2.66316 1.47969 3.14286 2.07143 3.14286H16.9286C17.5203 3.14286 18 2.66316 18 2.07143C18 1.47969 17.5203 1 16.9286 1H2.07143ZM2.07143 7.42858C1.47969 7.42858 1 7.90828 1 8.50001C1 9.09174 1.47969 9.57144 2.07143 9.57144H16.9286C17.5203 9.57144 18 9.09174 18 8.50001C18 7.90828 17.5203 7.42858 16.9286 7.42858H2.07143ZM2.07143 16C1.47969 16 1 15.5203 1 14.9286C1 14.3368 1.47969 13.8571 2.07143 13.8571H10.5536C11.1453 13.8571 11.625 14.3368 11.625 14.9286C11.625 15.5203 11.1453 16 10.5536 16H2.07143Z" fill="white"/>
<path d="M16.9286 2.64286H2.07143V3.64286H16.9286V2.64286ZM2.07143 1.5H16.9286V0.5H2.07143V1.5ZM16.9286 9.07144H2.07143V10.0714H16.9286V9.07144ZM2.07143 7.92858H16.9286V6.92858H2.07143V7.92858ZM10.5536 13.3571H2.07143V14.3571H10.5536V13.3571ZM2.07143 16.5H10.5536V15.5H2.07143V16.5ZM11.125 14.9286C11.125 15.2442 10.8692 15.5 10.5536 15.5V16.5C11.4214 16.5 12.125 15.7964 12.125 14.9286H11.125ZM10.5536 14.3571C10.8692 14.3571 11.125 14.613 11.125 14.9286H12.125C12.125 14.0607 11.4214 13.3571 10.5536 13.3571V14.3571ZM0.5 14.9286C0.5 15.7964 1.20355 16.5 2.07143 16.5V15.5C1.75584 15.5 1.5 15.2442 1.5 14.9286H0.5ZM1.5 14.9286C1.5 14.613 1.75584 14.3571 2.07143 14.3571V13.3571C1.20355 13.3571 0.5 14.0607 0.5 14.9286H1.5ZM18.5 8.50001C18.5 7.63213 17.7964 6.92858 16.9286 6.92858V7.92858C17.2442 7.92858 17.5 8.18442 17.5 8.50001H18.5ZM16.9286 10.0714C17.7964 10.0714 18.5 9.36789 18.5 8.50001H17.5C17.5 8.8156 17.2442 9.07144 16.9286 9.07144V10.0714ZM1.5 8.50001C1.5 8.18442 1.75584 7.92858 2.07143 7.92858V6.92858C1.20355 6.92858 0.5 7.63213 0.5 8.50001H1.5ZM0.5 8.50001C0.5 9.36789 1.20355 10.0714 2.07143 10.0714V9.07144C1.75584 9.07144 1.5 8.8156 1.5 8.50001H0.5ZM18.5 2.07143C18.5 1.20355 17.7964 0.5 16.9286 0.5V1.5C17.2442 1.5 17.5 1.75584 17.5 2.07143H18.5ZM16.9286 3.64286C17.7964 3.64286 18.5 2.9393 18.5 2.07143H17.5C17.5 2.38702 17.2442 2.64286 16.9286 2.64286V3.64286ZM1.5 2.07143C1.5 1.75584 1.75584 1.5 2.07143 1.5V0.5C1.20355 0.5 0.5 1.20355 0.5 2.07143H1.5ZM0.5 2.07143C0.5 2.9393 1.20355 3.64286 2.07143 3.64286V2.64286C1.75584 2.64286 1.5 2.38702 1.5 2.07143H0.5Z" fill="white"/>
</svg>
