<svg width="19" height="18" viewBox="0 0 19 18" fill="none" xmlns="http://www.w3.org/2000/svg">
<path fill-rule="evenodd" clip-rule="evenodd" d="M9.93885 4.30648L6.8667 7.11076C5.15699 8.67005 5.1342 11.2243 6.81328 12.805C7.62178 13.5672 8.70135 13.9915 9.85163 14H9.8532C11.0043 14.0079 12.0917 13.6 12.9136 12.85C14.6217 11.2936 14.6445 8.74005 12.9646 7.15791L9.93885 4.30648ZM9.83904 15.4286C8.26211 15.4165 6.78654 14.8372 5.68261 13.7972C3.41268 11.6601 3.44333 8.20935 5.75097 6.10435L9.39118 2.78221C9.54047 2.64649 9.74318 2.57006 9.95454 2.57149C10.1659 2.57363 10.367 2.65292 10.5132 2.79006L14.096 6.16649C16.3652 8.30435 16.3345 11.7558 14.0269 13.8586C12.9041 14.8829 11.4175 15.4401 9.84061 15.4286H9.83904Z" fill="#222B45"/>
<mask id="mask0" mask-type="alpha" maskUnits="userSpaceOnUse" x="4" y="2" width="12" height="14">
<path fill-rule="evenodd" clip-rule="evenodd" d="M9.93885 4.30648L6.8667 7.11076C5.15699 8.67005 5.1342 11.2243 6.81328 12.805C7.62178 13.5672 8.70135 13.9915 9.85163 14H9.8532C11.0043 14.0079 12.0917 13.6 12.9136 12.85C14.6217 11.2936 14.6445 8.74005 12.9646 7.15791L9.93885 4.30648ZM9.83904 15.4286C8.26211 15.4165 6.78654 14.8372 5.68261 13.7972C3.41268 11.6601 3.44333 8.20935 5.75097 6.10435L9.39118 2.78221C9.54047 2.64649 9.74318 2.57006 9.95454 2.57149C10.1659 2.57363 10.367 2.65292 10.5132 2.79006L14.096 6.16649C16.3652 8.30435 16.3345 11.7558 14.0269 13.8586C12.9041 14.8829 11.4175 15.4401 9.84061 15.4286H9.83904Z" fill="white"/>
</mask>
<g mask="url(#mask0)">
</g>
</svg>
