<svg width="125" height="97" viewBox="0 0 125 97" fill="none" xmlns="http://www.w3.org/2000/svg">
<rect x="0.5" y="0.5" width="124" height="96" fill="#EEEEEE" stroke="#D2D2D2"/>
<path d="M40.9574 66.9091V70.2798C40.9574 71.0753 40.321 71.5128 39.5952 71.5128C38.8693 71.5128 38.233 71.0753 38.233 70.2798V66.9091H37.6165V70.2798C37.6165 71.4233 38.5213 72.0895 39.5952 72.0895C40.669 72.0895 41.5739 71.4233 41.5739 70.2798V66.9091H40.9574ZM42.3154 73.4318H42.9021V71.4134H42.9518C43.081 71.6222 43.3296 72.0795 44.0654 72.0795C45.02 72.0795 45.6861 71.3139 45.6861 70.1009C45.6861 68.8977 45.02 68.1321 44.0555 68.1321C43.3097 68.1321 43.081 68.5895 42.9518 68.7884H42.8822V68.1818H42.3154V73.4318ZM42.8921 70.0909C42.8921 69.2358 43.27 68.6591 43.9859 68.6591C44.7316 68.6591 45.0995 69.2855 45.0995 70.0909C45.0995 70.9062 44.7217 71.5526 43.9859 71.5526C43.2799 71.5526 42.8921 70.956 42.8921 70.0909ZM46.7577 66.9091H46.171V72H46.7577V66.9091ZM48.9733 72.0795C50.0074 72.0795 50.7034 71.294 50.7034 70.1108C50.7034 68.9176 50.0074 68.1321 48.9733 68.1321C47.9392 68.1321 47.2432 68.9176 47.2432 70.1108C47.2432 71.294 47.9392 72.0795 48.9733 72.0795ZM48.9733 71.5526C48.1878 71.5526 47.8298 70.8764 47.8298 70.1108C47.8298 69.3452 48.1878 68.6591 48.9733 68.6591C49.7588 68.6591 50.1168 69.3452 50.1168 70.1108C50.1168 70.8764 49.7588 71.5526 48.9733 71.5526ZM52.3125 72.0895C52.9787 72.0895 53.3267 71.7315 53.446 71.483H53.4759V72H54.0625V69.4844C54.0625 68.2713 53.1378 68.1321 52.6506 68.1321C52.0739 68.1321 51.4176 68.331 51.1193 69.027L51.6761 69.2259C51.8054 68.9474 52.1112 68.6491 52.6705 68.6491C53.2099 68.6491 53.4759 68.935 53.4759 69.4247V69.4446C53.4759 69.728 53.1875 69.7031 52.4915 69.7926C51.783 69.8846 51.0099 70.0412 51.0099 70.9162C51.0099 71.6619 51.5867 72.0895 52.3125 72.0895ZM52.402 71.5625C51.9347 71.5625 51.5966 71.3537 51.5966 70.946C51.5966 70.4986 52.0043 70.3594 52.4617 70.2997C52.7102 70.2699 53.3764 70.2003 53.4759 70.081V70.6179C53.4759 71.0952 53.098 71.5625 52.402 71.5625ZM56.165 72.0795C56.9008 72.0795 57.1494 71.6222 57.2787 71.4134H57.3483V72H57.915V66.9091H57.3284V68.7884H57.2787C57.1494 68.5895 56.9207 68.1321 56.175 68.1321C55.2105 68.1321 54.5443 68.8977 54.5443 70.1009C54.5443 71.3139 55.2105 72.0795 56.165 72.0795ZM56.2446 71.5526C55.5088 71.5526 55.1309 70.9062 55.1309 70.0909C55.1309 69.2855 55.4988 68.6591 56.2446 68.6591C56.9605 68.6591 57.3383 69.2358 57.3383 70.0909C57.3383 70.956 56.9505 71.5526 56.2446 71.5526ZM60.2197 72H60.8063V68.1818H60.2197V72ZM60.518 67.5455C60.7467 67.5455 60.9356 67.3665 60.9356 67.1477C60.9356 66.929 60.7467 66.75 60.518 66.75C60.2893 66.75 60.1003 66.929 60.1003 67.1477C60.1003 67.3665 60.2893 67.5455 60.518 67.5455ZM61.4708 72H62.0574V69.6136C62.0574 69.0543 62.4651 68.6591 62.9225 68.6591C63.3675 68.6591 63.6782 68.9499 63.6782 69.3849V72H64.2748V69.5142C64.2748 69.022 64.583 68.6591 65.1199 68.6591C65.5376 68.6591 65.8955 68.8803 65.8955 69.4446V72H66.4822V69.4446C66.4822 68.5472 65.9999 68.1321 65.3188 68.1321C64.7719 68.1321 64.3717 68.3832 64.1753 68.7784H64.1356C63.9467 68.3707 63.6136 68.1321 63.1114 68.1321C62.6143 68.1321 62.2464 68.3707 62.0873 68.7784H62.0376V68.1818H61.4708V72ZM68.2684 72.0895C68.9346 72.0895 69.2826 71.7315 69.4019 71.483H69.4317V72H70.0184V69.4844C70.0184 68.2713 69.0936 68.1321 68.6064 68.1321C68.0297 68.1321 67.3735 68.331 67.0752 69.027L67.632 69.2259C67.7613 68.9474 68.067 68.6491 68.6263 68.6491C69.1657 68.6491 69.4317 68.935 69.4317 69.4247V69.4446C69.4317 69.728 69.1434 69.7031 68.4473 69.7926C67.7389 69.8846 66.9658 70.0412 66.9658 70.9162C66.9658 71.6619 67.5425 72.0895 68.2684 72.0895ZM68.3579 71.5625C67.8905 71.5625 67.5525 71.3537 67.5525 70.946C67.5525 70.4986 67.9601 70.3594 68.4175 70.2997C68.6661 70.2699 69.3323 70.2003 69.4317 70.081V70.6179C69.4317 71.0952 69.0539 71.5625 68.3579 71.5625ZM72.2203 73.5114C73.1351 73.5114 73.8709 73.0938 73.8709 72.1094V68.1818H73.3041V68.7884H73.2445C73.1152 68.5895 72.8766 68.1321 72.1308 68.1321C71.1663 68.1321 70.5001 68.8977 70.5001 70.071C70.5001 71.2642 71.1962 71.9403 72.1209 71.9403C72.8666 71.9403 73.1053 71.5028 73.2345 71.294H73.2842V72.0696C73.2842 72.706 72.8368 72.9943 72.2203 72.9943C71.5268 72.9943 71.2832 72.6289 71.1266 72.4176L70.6592 72.7457C70.8979 73.146 71.3677 73.5114 72.2203 73.5114ZM72.2004 71.4134C71.4646 71.4134 71.0868 70.8565 71.0868 70.0611C71.0868 69.2855 71.4547 68.6591 72.2004 68.6591C72.9163 68.6591 73.2942 69.2358 73.2942 70.0611C73.2942 70.9062 72.9064 71.4134 72.2004 71.4134ZM76.1356 72.0795C76.9112 72.0795 77.4779 71.6918 77.6569 71.1151L77.0901 70.956C76.941 71.3537 76.5955 71.5526 76.1356 71.5526C75.447 71.5526 74.9722 71.1076 74.9449 70.2898H77.7166V70.0412C77.7166 68.6193 76.8714 68.1321 76.0759 68.1321C75.0418 68.1321 74.3558 68.9474 74.3558 70.1207C74.3558 71.294 75.0319 72.0795 76.1356 72.0795ZM74.9449 69.7827C74.9847 69.1886 75.4048 68.6591 76.0759 68.6591C76.7123 68.6591 77.12 69.1364 77.12 69.7827H74.9449ZM79.9987 66.6705H79.4617L77.8211 72.7656H78.3581L79.9987 66.6705ZM81.8253 73.5114C82.74 73.5114 83.4758 73.0938 83.4758 72.1094V68.1818H82.9091V68.7884H82.8494C82.7202 68.5895 82.4815 68.1321 81.7358 68.1321C80.7713 68.1321 80.1051 68.8977 80.1051 70.071C80.1051 71.2642 80.8011 71.9403 81.7258 71.9403C82.4716 71.9403 82.7102 71.5028 82.8395 71.294H82.8892V72.0696C82.8892 72.706 82.4417 72.9943 81.8253 72.9943C81.1317 72.9943 80.8881 72.6289 80.7315 72.4176L80.2642 72.7457C80.5028 73.146 80.9726 73.5114 81.8253 73.5114ZM81.8054 71.4134C81.0696 71.4134 80.6917 70.8565 80.6917 70.0611C80.6917 69.2855 81.0596 68.6591 81.8054 68.6591C82.5213 68.6591 82.8991 69.2358 82.8991 70.0611C82.8991 70.9062 82.5114 71.4134 81.8054 71.4134ZM84.1397 72H84.7264V68.1818H84.1397V72ZM84.438 67.5455C84.6667 67.5455 84.8556 67.3665 84.8556 67.1477C84.8556 66.929 84.6667 66.75 84.438 66.75C84.2093 66.75 84.0204 66.929 84.0204 67.1477C84.0204 67.3665 84.2093 67.5455 84.438 67.5455ZM87.0911 68.1818H86.236V67.794C86.236 67.4162 86.3951 67.2173 86.7829 67.2173C86.9519 67.2173 87.0513 67.2571 87.111 67.277L87.28 66.7699C87.1906 66.7301 87.0116 66.6705 86.7232 66.6705C86.1763 66.6705 85.6494 66.9986 85.6494 67.6548V68.1818H85.0329V68.679H85.6494V72H86.236V68.679H87.0911V68.1818Z" fill="#C1C1C1"/>
<rect x="46" y="29" width="32" height="32" rx="6" stroke="white" stroke-width="2"/>
<path d="M46.3566 41.2544L60.3588 55.2566L68.9742 46.6412L77.5895 55.2566" stroke="white" stroke-width="2" stroke-linecap="round" stroke-linejoin="round"/>
<circle cx="64.8717" cy="38.0257" r="3.10256" stroke="white" stroke-width="2"/>
</svg>
