<svg width="122" height="122" viewBox="0 0 122 122" fill="none" xmlns="http://www.w3.org/2000/svg">
<path fill-rule="evenodd" clip-rule="evenodd" d="M61 121C94.1371 121 121 94.1371 121 61C121 27.8629 94.1371 1 61 1C27.8629 1 1 27.8629 1 61C1 94.1371 27.8629 121 61 121Z" stroke="#2DC897" stroke-opacity="0.2"/>
<path fill-rule="evenodd" clip-rule="evenodd" d="M61 109C87.5097 109 109 87.5097 109 61C109 34.4903 87.5097 13 61 13C34.4903 13 13 34.4903 13 61C13 87.5097 34.4903 109 61 109Z" stroke="#2DC897" stroke-opacity="0.501202"/>
<path fill-rule="evenodd" clip-rule="evenodd" d="M61 97C80.8823 97 97 80.8823 97 61C97 41.1177 80.8823 25 61 25C41.1177 25 25 41.1177 25 61C25 80.8823 41.1177 97 61 97Z" stroke="#2DC897"/>
<path fill-rule="evenodd" clip-rule="evenodd" d="M77.0838 51.427C77.6387 51.982 77.6387 52.8822 77.0838 53.4372C73.3998 57.1211 60.6627 69.8583 56.9792 73.5418C56.7127 73.8083 56.351 73.9585 55.9739 73.9585C55.5967 73.9585 55.2351 73.8083 54.9685 73.5418C52.6971 71.2704 47.1881 65.7613 44.9162 63.49C44.3613 62.9345 44.3613 62.0342 44.9162 61.4792C45.5304 60.8656 46.3128 60.0826 46.927 59.4685C47.482 58.9135 48.3822 58.9135 48.9372 59.469C51.0944 61.6262 55.9739 66.5056 55.9739 66.5056C55.9739 66.5056 69.2606 53.2184 73.0628 49.4167C73.3293 49.1501 73.691 49.0005 74.0681 49C74.4452 49 74.8069 49.1501 75.0735 49.4167L77.0838 51.427Z" fill="#2DC897"/>
</svg>
